<svg xmlns="http://www.w3.org/2000/svg" width="228.625" height="87.476" viewBox="0 0 228.625 87.476"><defs><style>.a{fill:#fafafc;}</style></defs><path class="a" d="M62.318,7.918a3.42,3.42,0,0,0-2.371.941L19.626,47.181a3.3,3.3,0,0,0-.08,4.731,3.445,3.445,0,0,0,4.82.078L58.909,19.158V233.2a3.41,3.41,0,0,0,6.818,0V19.158L100.27,51.991a3.432,3.432,0,0,0,2.371.941,3.478,3.478,0,0,0,2.463-1.019,3.305,3.305,0,0,0-.08-4.731L64.689,8.859A3.42,3.42,0,0,0,62.318,7.918Z" transform="translate(236.543 -18.586) rotate(90)"/></svg>