<svg xmlns="http://www.w3.org/2000/svg" width="13.971" height="16.213" viewBox="0 0 13.971 16.213"><defs><style>.a {
  fill: none;
}

.b, .c {
  stroke: none;
}

.c {
  fill: #fff;
}

</style></defs><g class="a" transform="matrix(0.017, 1, -1, 0.017, 13.692, 0)"><path class="b" d="M7.124,1.481a1,1,0,0,1,1.728,0L15.1,12.19a1,1,0,0,1-.864,1.5H1.741a1,1,0,0,1-.864-1.5Z"></path><path class="c" d="M 7.988082408905029 1.984633445739746 L 7.988085269927979 1.984628677368164 L 1.741035461425781 12.69385814666748 L 14.23513507843018 12.69385814666748 L 7.988085269927979 1.984638214111328 C 7.988084316253662 1.984636306762695 7.988083362579346 1.984635353088379 7.988082408905029 1.984633445739746 M 7.988085269927979 0.9846334457397461 C 8.323505401611328 0.9846334457397461 8.65892505645752 1.150008201599121 8.851865768432617 1.480758666992188 L 15.09891510009766 12.1899881362915 C 15.48779487609863 12.85664844512939 15.00692558288574 13.69385814666748 14.23513507843018 13.69385814666748 L 1.741035461425781 13.69385814666748 C 0.9692449569702148 13.69385814666748 0.4883756637573242 12.85664844512939 0.8772554397583008 12.1899881362915 L 7.124305725097656 1.480758666992188 C 7.317245483398438 1.150008201599121 7.652665138244629 0.9846334457397461 7.988085269927979 0.9846334457397461 Z"></path></g></svg>